<?xml version="1.0" encoding="utf-8"?>
<!-- Generator: Adobe Illustrator 16.0.4, SVG Export Plug-In . SVG Version: 6.00 Build 0)  -->
<!DOCTYPE svg PUBLIC "-//W3C//DTD SVG 1.1//EN" "http://www.w3.org/Graphics/SVG/1.1/DTD/svg11.dtd">
<svg version="1.1" id="Layer_1" xmlns="http://www.w3.org/2000/svg" xmlns:xlink="http://www.w3.org/1999/xlink" x="0px" y="0px"
	 width="32px" height="32px" viewBox="0 0 32 32" enable-background="new 0 0 32 32" xml:space="preserve">
<path fill-rule="evenodd" clip-rule="evenodd" fill="#181616" d="M15.995,0C7.162,0,0,7.162,0,15.998
	c0,7.067,4.583,13.06,10.941,15.178c0.799,0.145,1.091-0.348,1.091-0.77c0-0.383-0.014-1.388-0.022-2.724
	c-4.448,0.969-5.388-2.145-5.388-2.145c-0.728-1.845-1.776-2.341-1.776-2.341c-1.453-0.988,0.109-0.969,0.109-0.969
	c1.605,0.113,2.451,1.645,2.451,1.645c1.427,2.446,3.745,1.739,4.655,1.333c0.145-1.036,0.559-1.739,1.015-2.142
	c-3.552-0.402-7.286-1.773-7.286-7.905c0-1.747,0.623-3.174,1.646-4.292c-0.163-0.404-0.713-2.031,0.157-4.233
	c0,0,1.343-0.43,4.399,1.64c1.277-0.356,2.645-0.533,4.005-0.539c1.358,0.006,2.727,0.183,4.004,0.539
	c3.054-2.07,4.396-1.64,4.396-1.64c0.874,2.203,0.32,3.829,0.158,4.233c1.026,1.118,1.644,2.545,1.644,4.292
	c0,6.147-3.739,7.499-7.303,7.893c0.574,0.496,1.086,1.473,1.086,2.962c0,2.141-0.02,3.864-0.02,4.392
	c0,0.426,0.287,0.922,1.101,0.766c6.351-2.118,10.93-8.111,10.93-15.174C31.993,7.162,24.831,0,15.995,0z"/>
</svg>
