<?xml version="1.0" encoding="utf-8"?>
<!-- Generator: Adobe Illustrator 16.0.4, SVG Export Plug-In . SVG Version: 6.00 Build 0)  -->
<!DOCTYPE svg PUBLIC "-//W3C//DTD SVG 1.1//EN" "http://www.w3.org/Graphics/SVG/1.1/DTD/svg11.dtd">
<svg version="1.1" id="Layer_1" xmlns="http://www.w3.org/2000/svg" xmlns:xlink="http://www.w3.org/1999/xlink" x="0px" y="0px"
	 width="612px" height="613.125px" viewBox="0 88.375 612 613.125" enable-background="new 0 88.375 612 613.125"
	 xml:space="preserve">
<circle fill="#0074B4" cx="305.997" cy="395.024" r="306"/>
<g>
	<path fill="#FFFFFF" d="M218.077,551.5V337.876h-71V551.5H218.077L218.077,551.5z M182.58,308.719
		c24.756,0,40.171-16.415,40.171-36.918c-0.46-20.953-15.415-36.909-39.699-36.909c-24.296,0-40.171,15.956-40.171,36.909
		c0,20.503,15.409,36.918,39.238,36.918H182.58L182.58,308.719z"/>
	<path fill="#FFFFFF" d="M257.372,551.5h71.001V432.205c0-6.386,0.464-12.769,2.341-17.325c5.132-12.759,16.819-25.979,36.43-25.979
		c25.699,0,35.975,19.602,35.975,48.313V551.5h70.997V429.009c0-65.614-35.028-96.147-81.746-96.147
		c-38.306,0-55.121,21.418-64.464,35.997h0.469v-30.982h-71.001C258.304,357.913,257.372,551.5,257.372,551.5L257.372,551.5z"/>
</g>
</svg>
