<?xml version="1.0" encoding="utf-8"?>
<!-- Generator: Adobe Illustrator 16.0.4, SVG Export Plug-In . SVG Version: 6.00 Build 0)  -->
<!DOCTYPE svg PUBLIC "-//W3C//DTD SVG 1.1//EN" "http://www.w3.org/Graphics/SVG/1.1/DTD/svg11.dtd">
<svg version="1.1" id="Layer_1" xmlns="http://www.w3.org/2000/svg" xmlns:xlink="http://www.w3.org/1999/xlink" x="0px" y="0px"
	 width="612px" height="613.5px" viewBox="0 88.5 612 613.5" enable-background="new 0 88.5 612 613.5" xml:space="preserve">
<circle fill="#7EB61D" cx="306" cy="395.744" r="306"/>
<g>
	<circle fill="#FFFFFF" cx="306" cy="394.475" r="220.121"/>
	<g>
		<path fill="#7EB61D" d="M454.633,364.389c-3.11,0-6.266-0.805-9.145-2.496c-52.502-30.837-112.601-47.139-173.792-47.139
			c-33.06,0-65.8,4.707-97.306,13.99c-9.594,2.824-19.641-2.658-22.467-12.24c-2.821-9.583,2.659-19.642,12.242-22.466
			c34.829-10.261,71.007-15.464,107.53-15.464c67.628,0,134.066,18.023,192.12,52.122c8.614,5.06,11.498,16.146,6.438,24.76
			C466.881,361.194,460.838,364.389,454.633,364.389z"/>
		<path fill="#7EB61D" d="M424.869,429.947c-2.949,0-5.93-0.801-8.613-2.479c-43.297-27.062-93.285-41.368-144.56-41.368
			c-28.488,0-56.59,4.381-83.523,13.022c-8.562,2.742-17.731-1.968-20.479-10.53c-2.746-8.561,1.971-17.729,10.531-20.477
			c30.153-9.671,61.604-14.576,93.471-14.576c57.382,0,113.339,16.015,161.818,46.317c7.627,4.765,9.945,14.812,5.179,22.436
			C435.604,427.232,430.297,429.947,424.869,429.947z"/>
		<path fill="#7EB61D" d="M395.209,495.266c-2.844,0-5.715-0.84-8.232-2.58c-33.991-23.574-73.854-36.029-115.281-36.029
			c-23.962,0-47.412,4.139-69.692,12.301c-7.505,2.75-15.816-1.108-18.567-8.61c-2.749-7.506,1.105-15.817,8.611-18.566
			c25.48-9.336,52.277-14.067,79.648-14.067c47.349,0,92.919,14.244,131.773,41.189c6.57,4.554,8.199,13.567,3.648,20.135
			C404.307,493.091,399.795,495.266,395.209,495.266z"/>
		<path fill="#7EB61D" d="M383.461,538.018c-30.543-28.166-70.234-43.677-111.765-43.677c-26.139,0-51.187,5.985-74.459,17.774
			c-19.83,10.054-37.136,23.783-51.511,40.785c3.885,4.158,7.903,8.181,12.101,12.02l16.377,13.599
			c10.335,7.745,21.407,14.557,33.049,20.391c7.085-7.569,15.331-13.781,24.604-18.48c12.44-6.307,25.844-9.503,39.84-9.503
			c22.236,0,43.49,8.309,59.849,23.393c7.17,6.608,13.111,14.269,17.752,22.817c12.832-2.711,25.24-6.56,37.129-11.425l19.459-9.107
			c4.976-2.641,9.816-5.475,14.551-8.477C411.338,569.134,398.924,552.271,383.461,538.018z"/>
	</g>
</g>
</svg>
