<?xml version="1.0" encoding="utf-8"?>
<!-- Generator: Adobe Illustrator 16.0.4, SVG Export Plug-In . SVG Version: 6.00 Build 0)  -->
<!DOCTYPE svg PUBLIC "-//W3C//DTD SVG 1.1//EN" "http://www.w3.org/Graphics/SVG/1.1/DTD/svg11.dtd">
<svg version="1.1" id="Layer_1" xmlns="http://www.w3.org/2000/svg" xmlns:xlink="http://www.w3.org/1999/xlink" x="0px" y="0px"
	 width="16px" height="16px" viewBox="0 0 16 16" enable-background="new 0 0 16 16" xml:space="preserve">
<circle fill="#2CA9E3" cx="8" cy="7.975" r="7.975"/>
<path fill="#FFFFFF" d="M12.74,5.336c-0.338,0.151-0.702,0.252-1.084,0.298c0.39-0.234,0.689-0.606,0.83-1.049
	c-0.365,0.217-0.77,0.375-1.199,0.46c-0.344-0.369-0.834-0.599-1.377-0.599c-1.043,0-1.888,0.849-1.888,1.896
	c0,0.148,0.017,0.293,0.049,0.432c-1.569-0.079-2.96-0.834-3.891-1.981C4.019,5.074,3.925,5.4,3.925,5.747
	c0,0.658,0.333,1.238,0.84,1.578C4.456,7.315,4.165,7.23,3.91,7.088c0,0.008,0,0.016,0,0.024c0,0.918,0.651,1.685,1.514,1.859
	C5.266,9.014,5.099,9.037,4.927,9.037c-0.122,0-0.24-0.012-0.355-0.033c0.241,0.752,0.938,1.301,1.764,1.316
	c-0.646,0.508-1.46,0.811-2.344,0.811c-0.152,0-0.303-0.008-0.45-0.026c0.835,0.538,1.827,0.853,2.893,0.853
	c3.472,0,5.37-2.889,5.37-5.395c0-0.082-0.001-0.164-0.005-0.245C12.167,6.05,12.487,5.716,12.74,5.336z"/>
</svg>
