<?xml version="1.0" encoding="utf-8"?>
<!-- Generator: Adobe Illustrator 16.0.4, SVG Export Plug-In . SVG Version: 6.00 Build 0)  -->
<!DOCTYPE svg PUBLIC "-//W3C//DTD SVG 1.1//EN" "http://www.w3.org/Graphics/SVG/1.1/DTD/svg11.dtd">
<svg version="1.1" id="Layer_1" xmlns="http://www.w3.org/2000/svg" xmlns:xlink="http://www.w3.org/1999/xlink" x="0px" y="0px"
	 viewBox="0 0 183.766 184.354" enable-background="new 0 0 183.766 184.354"
	 xml:space="preserve">
<circle fill="#2CA9E3" cx="91.883" cy="91.884" r="91.883"/>
<path fill="#FFFFFF" d="M146.501,61.481c-3.901,1.738-8.093,2.911-12.49,3.439c4.49-2.703,7.938-6.983,9.562-12.084
	c-4.204,2.502-8.858,4.321-13.811,5.301c-3.968-4.246-9.62-6.897-15.873-6.897c-12.011,0-21.75,9.779-21.75,21.842
	c0,1.712,0.192,3.379,0.563,4.978C74.63,77.15,58.601,68.453,47.878,55.238c-1.872,3.227-2.945,6.979-2.945,10.98
	c0,7.578,3.84,14.263,9.675,18.181c-3.562-0.113-6.917-1.094-9.85-2.73c-0.002,0.09-0.002,0.182-0.002,0.274
	c0,10.583,7.499,19.413,17.445,21.417c-1.823,0.501-3.745,0.771-5.73,0.771c-1.398,0-2.761-0.139-4.091-0.394
	c2.769,8.676,10.802,14.992,20.316,15.168c-7.444,5.86-16.818,9.354-27.008,9.354c-1.756,0-3.486-0.106-5.188-0.31
	c9.623,6.198,21.052,9.816,33.337,9.816c40,0,61.875-33.285,61.875-62.151c0-0.945-0.021-1.887-0.062-2.826
	C139.898,69.709,143.584,65.863,146.501,61.481z"/>
</svg>
