<?xml version="1.0" encoding="utf-8"?>
<!-- Generator: Adobe Illustrator 16.0.4, SVG Export Plug-In . SVG Version: 6.00 Build 0)  -->
<!DOCTYPE svg PUBLIC "-//W3C//DTD SVG 1.1//EN" "http://www.w3.org/Graphics/SVG/1.1/DTD/svg11.dtd">
<svg version="1.1" id="Layer_1" xmlns="http://www.w3.org/2000/svg" xmlns:xlink="http://www.w3.org/1999/xlink" x="0px" y="0px"
	 viewBox="205.929 309.146 183.766 184.354"
	 enable-background="new 205.929 309.146 183.766 184.354" xml:space="preserve">
<circle fill="#BE2726" cx="297.812" cy="401.029" r="91.883"/>
<g>
	<g id="g1382" transform="matrix(1.25,0,0,-1.25,438.53875,696.92845)">
		<path id="path1384" fill="#FFFFFF" d="M-147.267,241.99c-1.641-2.63-2.334-10.913-1.764-16.41c0.2-1.816,0.528-3.328,1.007-4.23
			c0.656-1.248,1.761-1.991,3.018-2.038c0.806-0.041,1.309,0.095,16.478,4.973c0,0,6.743,2.152,6.771,2.166
			c1.681,0.427,2.812,1.973,2.921,3.947c0.109,2.023-0.934,3.811-2.658,4.459c0,0-4.754,1.938-4.764,1.938
			c-16.302,6.723-17.036,6.988-17.856,6.997C-145.37,243.841-146.488,243.208-147.267,241.99"/>
	</g>
	<g id="g1386" transform="matrix(1.25,0,0,-1.25,448.53875,710.66595)">
		<path id="path1388" fill="#FFFFFF" d="M-118.799,202.883c0.264,0.766,0.296,1.289,0.342,17.227c0,0,0.036,7.044,0.041,7.111
			c0.108,1.728-1.007,3.3-2.836,4.002c-1.882,0.725-3.911,0.279-5.05-1.139c0,0-3.329-3.949-3.338-3.949
			c-11.419-13.415-11.897-14.034-12.175-14.827c-0.169-0.466-0.237-0.966-0.182-1.464c0.068-0.711,0.392-1.413,0.925-2.069
			c2.648-3.145,15.348-7.818,19.405-7.125C-120.258,200.904-119.233,201.698-118.799,202.883"/>
	</g>
	<g id="g1390" transform="matrix(1.25,0,0,-1.25,455.60375,709.1447)">
		<path id="path1392" fill="#FFFFFF" d="M-98.686,207.213c3.83,1.527,12.18,12.153,12.77,16.245
			c0.203,1.421-0.242,2.647-1.223,3.432c-0.643,0.482-1.13,0.67-16.293,5.648c0,0-6.648,2.197-6.737,2.237
			c-1.609,0.626-3.446,0.045-4.681-1.477c-1.286-1.564-1.478-3.63-0.452-5.188l2.677-4.359c8.998-14.615,9.685-15.65,10.333-16.155
			C-101.289,206.808-100.013,206.68-98.686,207.213"/>
	</g>
	<g id="g1394" transform="matrix(1.25,0,0,-1.25,453.455,698.8272)">
		<path id="path1396" fill="#FFFFFF" d="M-104.804,236.585c17.23,4.176,17.898,4.395,18.576,4.841
			c1.045,0.702,1.57,1.878,1.478,3.309c0,0.046,0.008,0.096,0,0.146c-0.441,4.23-7.854,15.234-11.506,17.022
			c-1.295,0.62-2.589,0.579-3.665-0.142c-0.665-0.433-1.153-1.089-10.379-13.707c0,0-4.168-5.675-4.217-5.73
			c-1.098-1.335-1.117-3.25-0.041-4.891c1.112-1.7,2.991-2.53,4.714-2.05c0,0-0.07-0.124-0.088-0.147
			C-109.084,235.556-107.566,235.928-104.804,236.585"/>
	</g>
	<g id="g1398" transform="matrix(1.25,0,0,-1.25,448.7125,694.92595)">
		<path id="path1400" fill="#FFFFFF" d="M-118.304,247.691c-0.297,6.829-2.353,37.234-2.594,38.643
			c-0.346,1.276-1.346,2.188-2.777,2.548c-4.399,1.089-21.211-3.62-24.325-6.833c-1.003-1.044-1.372-2.329-1.071-3.469
			c0.493-1.007,21.32-33.779,21.32-33.779c3.077-4.992,5.589-4.216,6.413-3.957C-120.519,241.096-118.021,241.87-118.304,247.691"/>
	</g>
</g>
</svg>
